<svg width="120" height="36" viewBox="0 0 120 36" fill="none" xmlns="http://www.w3.org/2000/svg">
<path d="M52.14 25.324C50.8733 25.324 49.7867 25.1174 48.88 24.704C47.9867 24.2907 47.2867 23.684 46.78 22.884C46.2867 22.084 46.0133 21.0907 45.96 19.904C45.9467 19.3574 45.94 18.7707 45.94 18.144C45.94 17.5174 45.9467 16.9174 45.96 16.344C46.0133 15.184 46.2933 14.204 46.8 13.404C47.3067 12.5907 48.0133 11.9774 48.92 11.564C49.8267 11.1374 50.9 10.924 52.14 10.924C53.02 10.924 53.8333 11.0374 54.58 11.264C55.3267 11.4774 55.98 11.7974 56.54 12.224C57.1 12.6374 57.5333 13.144 57.84 13.744C58.16 14.3307 58.3267 14.9974 58.34 15.744C58.3533 15.864 58.3133 15.964 58.22 16.044C58.14 16.124 58.04 16.164 57.92 16.164H55.22C55.0467 16.164 54.9133 16.1307 54.82 16.064C54.7267 15.984 54.6467 15.844 54.58 15.644C54.3933 14.9374 54.0867 14.4574 53.66 14.204C53.2467 13.9374 52.7333 13.804 52.12 13.804C51.3867 13.804 50.8067 14.0107 50.38 14.424C49.9533 14.824 49.72 15.4974 49.68 16.444C49.64 17.5374 49.64 18.6574 49.68 19.804C49.72 20.7507 49.9533 21.4307 50.38 21.844C50.8067 22.244 51.3867 22.444 52.12 22.444C52.7333 22.444 53.2533 22.3107 53.68 22.044C54.1067 21.7774 54.4067 21.2974 54.58 20.604C54.6333 20.404 54.7067 20.2707 54.8 20.204C54.9067 20.124 55.0467 20.084 55.22 20.084H57.92C58.04 20.084 58.14 20.124 58.22 20.204C58.3133 20.284 58.3533 20.384 58.34 20.504C58.3267 21.2507 58.16 21.924 57.84 22.524C57.5333 23.1107 57.1 23.6174 56.54 24.044C55.98 24.4574 55.3267 24.7774 54.58 25.004C53.8333 25.2174 53.02 25.324 52.14 25.324ZM65.143 25.324C64.023 25.324 63.0763 25.144 62.303 24.784C61.543 24.424 60.9563 23.9107 60.543 23.244C60.143 22.564 59.9163 21.7574 59.863 20.824C59.8496 20.5574 59.843 20.2574 59.843 19.924C59.843 19.5774 59.8496 19.2774 59.863 19.024C59.9163 18.0774 60.1563 17.2707 60.583 16.604C61.0096 15.9374 61.603 15.424 62.363 15.064C63.1363 14.704 64.063 14.524 65.143 14.524C66.2363 14.524 67.163 14.704 67.923 15.064C68.6963 15.424 69.2963 15.9374 69.723 16.604C70.1496 17.2707 70.3896 18.0774 70.443 19.024C70.4563 19.2774 70.463 19.5774 70.463 19.924C70.463 20.2574 70.4563 20.5574 70.443 20.824C70.3896 21.7574 70.1563 22.564 69.743 23.244C69.343 23.9107 68.7563 24.424 67.983 24.784C67.223 25.144 66.2763 25.324 65.143 25.324ZM65.143 22.884C65.743 22.884 66.1763 22.704 66.443 22.344C66.723 21.984 66.883 21.444 66.923 20.724C66.9363 20.524 66.943 20.2574 66.943 19.924C66.943 19.5907 66.9363 19.324 66.923 19.124C66.883 18.4174 66.723 17.884 66.443 17.524C66.1763 17.1507 65.743 16.964 65.143 16.964C64.5563 16.964 64.123 17.1507 63.843 17.524C63.563 17.884 63.4096 18.4174 63.383 19.124C63.3696 19.324 63.363 19.5907 63.363 19.924C63.363 20.2574 63.3696 20.524 63.383 20.724C63.4096 21.444 63.563 21.984 63.843 22.344C64.123 22.704 64.5563 22.884 65.143 22.884ZM76.31 25.324C75.67 25.324 75.09 25.224 74.57 25.024C74.0633 24.8107 73.6233 24.504 73.25 24.104C72.89 23.6907 72.61 23.1974 72.41 22.624C72.21 22.0374 72.0967 21.3707 72.07 20.624C72.0567 20.3574 72.05 20.124 72.05 19.924C72.05 19.7107 72.0567 19.4774 72.07 19.224C72.0967 18.504 72.21 17.8574 72.41 17.284C72.61 16.7107 72.89 16.2174 73.25 15.804C73.61 15.3907 74.05 15.0774 74.57 14.864C75.09 14.6374 75.67 14.524 76.31 14.524C76.9767 14.524 77.55 14.6374 78.03 14.864C78.51 15.0774 78.9167 15.3574 79.25 15.704V11.424C79.25 11.2774 79.2967 11.1574 79.39 11.064C79.4833 10.9707 79.6033 10.924 79.75 10.924H82.19C82.3233 10.924 82.4367 10.9707 82.53 11.064C82.6367 11.1574 82.69 11.2774 82.69 11.424V24.624C82.69 24.7707 82.6367 24.8907 82.53 24.984C82.4367 25.0774 82.3233 25.124 82.19 25.124H79.93C79.7833 25.124 79.6633 25.0774 79.57 24.984C79.4767 24.8907 79.43 24.7707 79.43 24.624V23.984C79.11 24.3707 78.6967 24.6907 78.19 24.944C77.6833 25.1974 77.0567 25.324 76.31 25.324ZM77.39 22.644C77.8433 22.644 78.1967 22.5507 78.45 22.364C78.7167 22.164 78.91 21.9107 79.03 21.604C79.1633 21.2974 79.2367 20.964 79.25 20.604C79.2633 20.3374 79.27 20.084 79.27 19.844C79.27 19.604 79.2633 19.3574 79.25 19.104C79.2367 18.7707 79.1633 18.464 79.03 18.184C78.8967 17.8907 78.6967 17.6574 78.43 17.484C78.1633 17.2974 77.8167 17.204 77.39 17.204C76.95 17.204 76.5967 17.2974 76.33 17.484C76.0767 17.6707 75.8967 17.924 75.79 18.244C75.6833 18.564 75.6167 18.9174 75.59 19.304C75.55 19.7174 75.55 20.1307 75.59 20.544C75.6167 20.9307 75.6833 21.284 75.79 21.604C75.8967 21.924 76.0767 22.1774 76.33 22.364C76.5967 22.5507 76.95 22.644 77.39 22.644ZM89.8472 25.324C88.2739 25.324 87.0205 24.8974 86.0872 24.044C85.1539 23.1907 84.6672 21.924 84.6272 20.244C84.6272 20.1507 84.6272 20.0307 84.6272 19.884C84.6272 19.7374 84.6272 19.624 84.6272 19.544C84.6672 18.4907 84.9005 17.5907 85.3272 16.844C85.7672 16.084 86.3672 15.5107 87.1272 15.124C87.9005 14.724 88.8005 14.524 89.8272 14.524C91.0005 14.524 91.9672 14.7574 92.7272 15.224C93.5005 15.6907 94.0805 16.324 94.4672 17.124C94.8539 17.924 95.0472 18.8374 95.0472 19.864V20.344C95.0472 20.4907 94.9939 20.6107 94.8872 20.704C94.7939 20.7974 94.6805 20.844 94.5472 20.844H88.1472C88.1472 20.8574 88.1472 20.8774 88.1472 20.904C88.1472 20.9307 88.1472 20.9574 88.1472 20.984C88.1605 21.3707 88.2272 21.724 88.3472 22.044C88.4672 22.364 88.6539 22.6174 88.9072 22.804C89.1605 22.9907 89.4672 23.084 89.8272 23.084C90.0939 23.084 90.3139 23.044 90.4872 22.964C90.6739 22.8707 90.8272 22.7707 90.9472 22.664C91.0672 22.544 91.1605 22.444 91.2272 22.364C91.3472 22.2307 91.4405 22.1507 91.5072 22.124C91.5872 22.084 91.7072 22.064 91.8672 22.064H94.3472C94.4805 22.064 94.5872 22.104 94.6672 22.184C94.7605 22.2507 94.8005 22.3507 94.7872 22.484C94.7739 22.7107 94.6605 22.984 94.4472 23.304C94.2339 23.624 93.9205 23.944 93.5072 24.264C93.1072 24.5707 92.6005 24.824 91.9872 25.024C91.3739 25.224 90.6605 25.324 89.8472 25.324ZM88.1472 18.864H91.5272V18.824C91.5272 18.3974 91.4605 18.024 91.3272 17.704C91.2072 17.384 91.0139 17.1374 90.7472 16.964C90.4939 16.7907 90.1872 16.704 89.8272 16.704C89.4672 16.704 89.1605 16.7907 88.9072 16.964C88.6672 17.1374 88.4805 17.384 88.3472 17.704C88.2139 18.024 88.1472 18.3974 88.1472 18.824V18.864ZM100.232 25.124C100.032 25.124 99.8849 25.0774 99.7916 24.984C99.6982 24.8774 99.6182 24.7574 99.5516 24.624L95.7716 15.344C95.7449 15.2907 95.7316 15.2307 95.7316 15.164C95.7316 15.044 95.7716 14.944 95.8516 14.864C95.9449 14.7707 96.0582 14.724 96.1916 14.724H98.4516C98.6249 14.724 98.7582 14.7707 98.8516 14.864C98.9449 14.9574 99.0049 15.0507 99.0316 15.144L101.292 21.284L103.572 15.144C103.598 15.0507 103.658 14.9574 103.752 14.864C103.845 14.7707 103.978 14.724 104.152 14.724H106.412C106.532 14.724 106.638 14.7707 106.732 14.864C106.825 14.944 106.872 15.044 106.872 15.164C106.872 15.2307 106.858 15.2907 106.832 15.344L103.052 24.624C102.998 24.7574 102.918 24.8774 102.812 24.984C102.718 25.0774 102.565 25.124 102.352 25.124H100.232ZM112.955 25.324C111.835 25.324 110.889 25.144 110.115 24.784C109.355 24.424 108.769 23.9107 108.355 23.244C107.955 22.564 107.729 21.7574 107.675 20.824C107.662 20.5574 107.655 20.2574 107.655 19.924C107.655 19.5774 107.662 19.2774 107.675 19.024C107.729 18.0774 107.969 17.2707 108.395 16.604C108.822 15.9374 109.415 15.424 110.175 15.064C110.949 14.704 111.875 14.524 112.955 14.524C114.049 14.524 114.975 14.704 115.735 15.064C116.509 15.424 117.109 15.9374 117.535 16.604C117.962 17.2707 118.202 18.0774 118.255 19.024C118.269 19.2774 118.275 19.5774 118.275 19.924C118.275 20.2574 118.269 20.5574 118.255 20.824C118.202 21.7574 117.969 22.564 117.555 23.244C117.155 23.9107 116.569 24.424 115.795 24.784C115.035 25.144 114.089 25.324 112.955 25.324ZM112.955 22.884C113.555 22.884 113.989 22.704 114.255 22.344C114.535 21.984 114.695 21.444 114.735 20.724C114.749 20.524 114.755 20.2574 114.755 19.924C114.755 19.5907 114.749 19.324 114.735 19.124C114.695 18.4174 114.535 17.884 114.255 17.524C113.989 17.1507 113.555 16.964 112.955 16.964C112.369 16.964 111.935 17.1507 111.655 17.524C111.375 17.884 111.222 18.4174 111.195 19.124C111.182 19.324 111.175 19.5907 111.175 19.924C111.175 20.2574 111.182 20.524 111.195 20.724C111.222 21.444 111.375 21.984 111.655 22.344C111.935 22.704 112.369 22.884 112.955 22.884Z" fill="#FF5E3A"/>
<path d="M31.1473 13.5118L31.1255 13.4908C31.1238 13.4896 31.1224 13.4881 31.1215 13.4862L17.5006 0.328125L3.87983 13.4859C3.87826 13.4874 3.8758 13.4905 3.8758 13.4905L3.85333 13.5115C1.77053 15.5348 0.447586 18.1726 0.0948177 21.0056C-0.25795 23.8386 0.379698 26.7042 1.90639 29.1469C3.43309 31.5897 5.76122 33.4694 8.52069 34.4871C11.2802 35.5047 14.3126 35.6023 17.136 34.7638C17.3735 34.6937 17.6275 34.6937 17.8651 34.7638C20.6882 35.6019 23.7205 35.5044 26.4798 34.4866C29.2391 33.4687 31.567 31.5892 33.0936 29.1466C34.6202 26.704 35.2579 23.8386 34.9053 21.0057C34.5526 18.1729 33.2299 15.5351 31.1473 13.5118ZM8.7232 22.1885C8.65689 22.2526 8.6043 22.3287 8.56844 22.4123C8.53257 22.4959 8.5141 22.5856 8.51412 22.6761C8.53835 24.9984 9.21776 27.2703 10.4792 29.2473C10.5079 29.2922 10.5211 29.3447 10.517 29.3972C10.513 29.4497 10.4918 29.4996 10.4566 29.5399C10.4213 29.5802 10.3738 29.6085 10.3209 29.6211C10.2679 29.6337 10.2122 29.6298 10.1616 29.6099C9.21332 29.2246 8.35182 28.6644 7.62531 27.9609C6.13646 26.5224 5.29946 24.5718 5.2981 22.5377C5.29675 20.5035 6.13117 18.5519 7.61812 17.1117L17.5006 7.5661L27.3826 17.1117C28.8698 18.5518 29.7045 20.5033 29.703 22.5377C29.7018 24.5718 28.8647 26.5224 27.3757 27.9609C26.6492 28.6644 25.7877 29.2246 24.8396 29.6099C24.7889 29.6298 24.7332 29.6337 24.6802 29.6211C24.6273 29.6085 24.5798 29.58 24.5445 29.5399C24.5093 29.4996 24.488 29.4497 24.484 29.397C24.4799 29.3445 24.4931 29.292 24.5218 29.2472C25.7835 27.2703 26.4633 24.9984 26.4879 22.6761C26.4879 22.5856 26.4692 22.4959 26.4332 22.4121C26.3971 22.3284 26.3444 22.2524 26.2779 22.1884L21.6037 17.399C21.5571 17.3615 21.4985 17.3409 21.4378 17.3409C21.3773 17.3409 21.3186 17.3615 21.2721 17.399C21.2255 17.4364 21.1942 17.4886 21.1833 17.5462C21.1724 17.6037 21.1828 17.663 21.2127 17.714C23.0281 20.8875 21.467 25.4458 18.8637 27.9609L18.85 27.9741C18.4907 28.3175 18.0056 28.51 17.5002 28.5098C16.9948 28.5097 16.5098 28.3168 16.1508 27.9733L16.1382 27.9609C13.5339 25.4458 11.9736 20.888 13.7893 17.7147C13.8192 17.6637 13.8296 17.6044 13.8187 17.5468C13.8079 17.4892 13.7764 17.4371 13.7299 17.3997C13.6834 17.3622 13.6247 17.3416 13.5642 17.3416C13.5036 17.3416 13.4449 17.3622 13.3984 17.3997L8.7232 22.1885Z" fill="#FF5E3A"/>
</svg>
